<?xml version="1.0" encoding="UTF-8"?>
<svg xmlns="http://www.w3.org/2000/svg" xmlns:xlink="http://www.w3.org/1999/xlink" width="164px" height="96px" viewBox="0 0 164 96" version="1.1">
<g id="surface1">
<path style=" stroke:none;fill-rule:nonzero;fill:rgb(99.607843%,99.607843%,99.607843%);fill-opacity:1;" d="M 67.804688 71.71875 C 67.972656 71.347656 68.242188 71.160156 68.609375 71.160156 C 68.839844 71.160156 69.046875 71.238281 69.230469 71.390625 C 69.414062 71.546875 69.507812 71.738281 69.507812 71.96875 C 69.507812 72.105469 69.480469 72.234375 69.414062 72.339844 L 64.921875 82.035156 C 64.828125 82.234375 64.691406 82.390625 64.507812 82.507812 C 64.324219 82.625 64.125 82.679688 63.910156 82.679688 C 63.707031 82.679688 63.515625 82.625 63.332031 82.507812 C 63.148438 82.390625 63 82.234375 62.894531 82.035156 L 58.421875 72.339844 C 58.359375 72.230469 58.328125 72.117188 58.328125 71.992188 C 58.328125 71.761719 58.433594 71.5625 58.640625 71.390625 C 58.847656 71.222656 59.074219 71.140625 59.320312 71.140625 C 59.472656 71.140625 59.625 71.183594 59.769531 71.277344 C 59.917969 71.367188 60.027344 71.5 60.105469 71.667969 L 63.957031 80.324219 L 67.804688 71.714844 Z M 71.238281 82.730469 C 70.960938 82.730469 70.734375 82.648438 70.558594 82.488281 C 70.382812 82.324219 70.292969 82.097656 70.292969 81.804688 L 70.292969 72.0625 C 70.292969 71.769531 70.382812 71.542969 70.558594 71.382812 C 70.734375 71.21875 70.960938 71.140625 71.238281 71.140625 C 71.511719 71.140625 71.738281 71.21875 71.90625 71.382812 C 72.074219 71.542969 72.160156 71.769531 72.160156 72.0625 L 72.160156 81.804688 C 72.160156 82.113281 72.074219 82.34375 71.90625 82.5 C 71.738281 82.652344 71.511719 82.730469 71.238281 82.730469 Z M 71.238281 68.714844 C 70.867188 68.714844 70.570312 68.609375 70.339844 68.390625 C 70.109375 68.179688 69.992188 67.890625 69.992188 67.539062 C 69.992188 67.199219 70.109375 66.921875 70.339844 66.707031 C 70.570312 66.492188 70.867188 66.382812 71.238281 66.382812 C 71.605469 66.382812 71.90625 66.492188 72.136719 66.707031 C 72.367188 66.921875 72.480469 67.199219 72.480469 67.539062 C 72.480469 67.894531 72.367188 68.179688 72.136719 68.390625 C 71.90625 68.609375 71.605469 68.714844 71.238281 68.714844 Z M 75.320312 82.730469 C 75.042969 82.730469 74.8125 82.648438 74.636719 82.488281 C 74.460938 82.324219 74.371094 82.097656 74.371094 81.804688 L 74.371094 67.148438 C 74.371094 66.851562 74.460938 66.625 74.636719 66.464844 C 74.8125 66.300781 75.039062 66.222656 75.320312 66.222656 C 75.578125 66.222656 75.796875 66.300781 75.972656 66.464844 C 76.152344 66.625 76.242188 66.851562 76.242188 67.148438 L 76.242188 81.804688 C 76.242188 82.097656 76.152344 82.324219 75.972656 82.488281 C 75.796875 82.648438 75.578125 82.730469 75.320312 82.730469 Z M 83.039062 71.09375 C 85.847656 71.09375 87.253906 72.570312 87.253906 75.523438 L 87.253906 81.804688 C 87.253906 82.082031 87.175781 82.304688 87.015625 82.472656 C 86.851562 82.640625 86.632812 82.730469 86.359375 82.730469 C 86.082031 82.730469 85.855469 82.640625 85.6875 82.472656 C 85.519531 82.304688 85.4375 82.082031 85.4375 81.804688 L 85.4375 80.695312 C 85.144531 81.359375 84.699219 81.871094 84.097656 82.230469 C 83.5 82.59375 82.808594 82.773438 82.023438 82.773438 C 81.300781 82.773438 80.636719 82.628906 80.027344 82.335938 C 79.421875 82.042969 78.945312 81.636719 78.589844 81.113281 C 78.238281 80.589844 78.058594 80.011719 78.058594 79.378906 C 78.058594 78.535156 78.273438 77.878906 78.703125 77.40625 C 79.136719 76.9375 79.839844 76.597656 80.824219 76.390625 C 81.808594 76.183594 83.175781 76.082031 84.929688 76.082031 L 85.4375 76.082031 L 85.4375 75.316406 C 85.4375 74.394531 85.246094 73.71875 84.871094 73.285156 C 84.492188 72.855469 83.882812 72.640625 83.039062 72.640625 C 81.992188 72.640625 80.933594 72.925781 79.855469 73.492188 C 79.441406 73.753906 79.148438 73.886719 78.980469 73.886719 C 78.796875 73.886719 78.640625 73.816406 78.519531 73.679688 C 78.398438 73.539062 78.332031 73.363281 78.332031 73.148438 C 78.332031 72.933594 78.398438 72.742188 78.53125 72.582031 C 78.660156 72.421875 78.871094 72.257812 79.164062 72.085938 C 79.703125 71.777344 80.3125 71.535156 80.996094 71.359375 C 81.679688 71.183594 82.359375 71.09375 83.039062 71.09375 Z M 82.277344 81.296875 C 83.199219 81.296875 83.957031 80.984375 84.546875 80.359375 C 85.140625 79.738281 85.4375 78.933594 85.4375 77.949219 L 85.4375 77.28125 L 85.019531 77.28125 C 83.667969 77.28125 82.636719 77.335938 81.933594 77.453125 C 81.226562 77.566406 80.722656 77.761719 80.421875 78.027344 C 80.125 78.300781 79.972656 78.695312 79.972656 79.21875 C 79.972656 79.820312 80.191406 80.316406 80.628906 80.707031 C 81.066406 81.101562 81.617188 81.296875 82.277344 81.296875 Z M 100 82.773438 C 98.941406 82.773438 98.007812 82.535156 97.199219 82.058594 C 96.394531 81.582031 95.773438 80.898438 95.335938 80.015625 C 94.894531 79.132812 94.675781 78.105469 94.675781 76.933594 C 94.675781 75.761719 94.894531 74.738281 95.335938 73.851562 C 95.773438 72.96875 96.394531 72.285156 97.199219 71.808594 C 98.007812 71.332031 98.941406 71.09375 100 71.09375 C 101.058594 71.09375 101.996094 71.332031 102.8125 71.808594 C 103.625 72.289062 104.253906 72.96875 104.691406 73.851562 C 105.128906 74.738281 105.347656 75.761719 105.347656 76.933594 C 105.347656 78.105469 105.128906 79.128906 104.691406 80.015625 C 104.253906 80.898438 103.625 81.582031 102.8125 82.058594 C 102 82.535156 101.058594 82.773438 100 82.773438 Z M 100 81.226562 C 101.109375 81.226562 101.957031 80.863281 102.546875 80.132812 C 103.140625 79.402344 103.433594 78.335938 103.433594 76.9375 C 103.433594 75.5625 103.136719 74.507812 102.535156 73.761719 C 101.9375 73.011719 101.089844 72.640625 100 72.640625 C 98.910156 72.640625 98.066406 73.011719 97.464844 73.761719 C 96.867188 74.507812 96.566406 75.5625 96.566406 76.9375 C 96.566406 78.320312 96.863281 79.378906 97.453125 80.121094 C 98.046875 80.859375 98.894531 81.226562 100 81.226562 Z M 107.816406 82.730469 C 107.539062 82.730469 107.3125 82.648438 107.136719 82.488281 C 106.957031 82.324219 106.871094 82.097656 106.871094 81.804688 L 106.871094 67.148438 C 106.871094 66.851562 106.957031 66.625 107.136719 66.464844 C 107.3125 66.300781 107.539062 66.222656 107.816406 66.222656 C 108.078125 66.222656 108.296875 66.300781 108.472656 66.464844 C 108.648438 66.625 108.738281 66.851562 108.738281 67.148438 L 108.738281 81.804688 C 108.738281 82.097656 108.648438 82.324219 108.472656 82.488281 C 108.296875 82.648438 108.078125 82.730469 107.816406 82.730469 Z M 111.894531 82.730469 C 111.617188 82.730469 111.390625 82.648438 111.214844 82.488281 C 111.035156 82.324219 110.949219 82.097656 110.949219 81.804688 L 110.949219 72.0625 C 110.949219 71.769531 111.035156 71.542969 111.214844 71.382812 C 111.390625 71.21875 111.617188 71.140625 111.894531 71.140625 C 112.171875 71.140625 112.394531 71.21875 112.5625 71.382812 C 112.730469 71.542969 112.816406 71.769531 112.816406 72.0625 L 112.816406 81.804688 C 112.816406 82.113281 112.730469 82.34375 112.5625 82.5 C 112.394531 82.652344 112.167969 82.730469 111.894531 82.730469 Z M 112.308594 69.871094 C 112.1875 69.960938 112.0625 70.007812 111.941406 70.007812 C 111.789062 70.007812 111.65625 69.960938 111.550781 69.859375 C 111.441406 69.757812 111.386719 69.640625 111.386719 69.5 C 111.386719 69.378906 111.433594 69.265625 111.527344 69.15625 L 114.199219 65.644531 C 114.476562 65.292969 114.789062 65.113281 115.144531 65.113281 C 115.390625 65.113281 115.59375 65.195312 115.765625 65.355469 C 115.933594 65.519531 116.019531 65.722656 116.019531 65.96875 C 116.019531 66.292969 115.867188 66.585938 115.558594 66.847656 Z M 127.519531 71.09375 C 130.007812 71.09375 131.253906 72.578125 131.253906 75.550781 L 131.253906 81.804688 C 131.253906 82.097656 131.167969 82.324219 131 82.488281 C 130.832031 82.648438 130.609375 82.730469 130.332031 82.730469 C 130.058594 82.730469 129.832031 82.648438 129.652344 82.488281 C 129.476562 82.324219 129.390625 82.097656 129.390625 81.804688 L 129.390625 75.597656 C 129.390625 74.5625 129.203125 73.816406 128.835938 73.355469 C 128.464844 72.894531 127.890625 72.664062 127.105469 72.664062 C 126.167969 72.664062 125.433594 72.980469 124.894531 73.609375 C 124.355469 74.242188 124.089844 75.09375 124.089844 76.171875 L 124.089844 81.804688 C 124.089844 82.097656 124 82.324219 123.824219 82.488281 C 123.644531 82.648438 123.417969 82.730469 123.140625 82.730469 C 122.867188 82.730469 122.640625 82.648438 122.472656 82.488281 C 122.304688 82.324219 122.21875 82.097656 122.21875 81.804688 L 122.21875 75.597656 C 122.21875 74.5625 122.035156 73.816406 121.667969 73.355469 C 121.300781 72.894531 120.714844 72.664062 119.914062 72.664062 C 118.996094 72.664062 118.257812 72.980469 117.710938 73.609375 C 117.167969 74.242188 116.894531 75.09375 116.894531 76.171875 L 116.894531 81.804688 C 116.894531 82.097656 116.8125 82.324219 116.640625 82.488281 C 116.472656 82.648438 116.25 82.730469 115.972656 82.730469 C 115.699219 82.730469 115.472656 82.648438 115.292969 82.488281 C 115.117188 82.324219 115.027344 82.097656 115.027344 81.804688 L 115.027344 72.0625 C 115.027344 71.785156 115.117188 71.5625 115.292969 71.394531 C 115.472656 71.226562 115.695312 71.140625 115.972656 71.140625 C 116.234375 71.140625 116.449219 71.222656 116.617188 71.382812 C 116.789062 71.542969 116.871094 71.761719 116.871094 72.039062 L 116.871094 73.148438 C 117.210938 72.488281 117.679688 71.980469 118.28125 71.625 C 118.878906 71.269531 119.570312 71.09375 120.351562 71.09375 C 122.105469 71.09375 123.25 71.832031 123.789062 73.3125 C 124.109375 72.632812 124.601562 72.09375 125.261719 71.695312 C 125.921875 71.292969 126.675781 71.09375 127.519531 71.09375 Z M 139.046875 71.09375 C 140.027344 71.09375 140.898438 71.339844 141.648438 71.832031 C 142.402344 72.324219 142.984375 73.011719 143.402344 73.898438 C 143.816406 74.785156 144.023438 75.808594 144.023438 76.980469 C 144.023438 78.148438 143.816406 79.167969 143.402344 80.039062 C 142.984375 80.910156 142.40625 81.582031 141.660156 82.058594 C 140.914062 82.539062 140.042969 82.773438 139.046875 82.773438 C 138.167969 82.773438 137.40625 82.585938 136.753906 82.199219 C 136.097656 81.8125 135.601562 81.265625 135.265625 80.558594 L 135.265625 85.984375 C 135.265625 86.261719 135.183594 86.480469 135.023438 86.640625 C 134.859375 86.804688 134.636719 86.882812 134.34375 86.882812 C 134.050781 86.882812 133.824219 86.800781 133.652344 86.628906 C 133.480469 86.460938 133.398438 86.246094 133.398438 85.984375 L 133.398438 72.0625 C 133.398438 71.785156 133.480469 71.5625 133.652344 71.394531 C 133.820312 71.226562 134.050781 71.140625 134.34375 71.140625 C 134.636719 71.140625 134.859375 71.226562 135.023438 71.394531 C 135.183594 71.5625 135.265625 71.785156 135.265625 72.0625 L 135.265625 73.3125 C 135.601562 72.601562 136.097656 72.054688 136.753906 71.671875 C 137.40625 71.285156 138.167969 71.09375 139.046875 71.09375 Z M 138.675781 81.226562 C 139.765625 81.226562 140.613281 80.859375 141.210938 80.121094 C 141.808594 79.378906 142.109375 78.335938 142.109375 76.980469 C 142.109375 75.625 141.8125 74.566406 141.210938 73.808594 C 140.613281 73.046875 139.765625 72.664062 138.675781 72.664062 C 137.582031 72.664062 136.746094 73.035156 136.152344 73.773438 C 135.558594 74.511719 135.265625 75.5625 135.265625 76.9375 C 135.265625 78.304688 135.558594 79.363281 136.152344 80.109375 C 136.746094 80.855469 137.582031 81.226562 138.675781 81.226562 Z M 146.488281 82.730469 C 146.210938 82.730469 145.984375 82.648438 145.8125 82.488281 C 145.632812 82.324219 145.542969 82.097656 145.542969 81.804688 L 145.542969 72.0625 C 145.542969 71.769531 145.632812 71.542969 145.8125 71.382812 C 145.988281 71.21875 146.210938 71.140625 146.488281 71.140625 C 146.765625 71.140625 146.988281 71.21875 147.15625 71.382812 C 147.324219 71.542969 147.410156 71.769531 147.410156 72.0625 L 147.410156 81.804688 C 147.410156 82.113281 147.324219 82.34375 147.15625 82.5 C 146.988281 82.652344 146.765625 82.730469 146.488281 82.730469 Z M 146.488281 68.714844 C 146.121094 68.714844 145.824219 68.609375 145.589844 68.390625 C 145.359375 68.179688 145.246094 67.890625 145.246094 67.539062 C 145.246094 67.199219 145.359375 66.921875 145.589844 66.707031 C 145.824219 66.492188 146.121094 66.382812 146.488281 66.382812 C 146.859375 66.382812 147.15625 66.492188 147.390625 66.707031 C 147.617188 66.921875 147.734375 67.199219 147.734375 67.539062 C 147.734375 67.894531 147.621094 68.179688 147.390625 68.390625 C 147.15625 68.609375 146.859375 68.714844 146.488281 68.714844 Z M 154.210938 71.09375 C 157.023438 71.09375 158.429688 72.570312 158.429688 75.523438 L 158.429688 81.804688 C 158.429688 82.082031 158.347656 82.304688 158.1875 82.472656 C 158.027344 82.640625 157.804688 82.730469 157.53125 82.730469 C 157.253906 82.730469 157.03125 82.640625 156.859375 82.472656 C 156.691406 82.304688 156.605469 82.082031 156.605469 81.804688 L 156.605469 80.695312 C 156.316406 81.359375 155.867188 81.871094 155.269531 82.230469 C 154.671875 82.59375 153.980469 82.773438 153.195312 82.773438 C 152.472656 82.773438 151.808594 82.628906 151.203125 82.335938 C 150.59375 82.042969 150.113281 81.636719 149.761719 81.113281 C 149.40625 80.589844 149.230469 80.011719 149.230469 79.378906 C 149.230469 78.535156 149.445312 77.878906 149.875 77.40625 C 150.304688 76.9375 151.011719 76.597656 151.996094 76.390625 C 152.980469 76.183594 154.347656 76.082031 156.097656 76.082031 L 156.605469 76.082031 L 156.605469 75.316406 C 156.605469 74.394531 156.417969 73.71875 156.042969 73.285156 C 155.664062 72.855469 155.054688 72.640625 154.210938 72.640625 C 153.164062 72.640625 152.105469 72.925781 151.03125 73.492188 C 150.613281 73.753906 150.320312 73.886719 150.152344 73.886719 C 149.96875 73.886719 149.816406 73.816406 149.691406 73.679688 C 149.570312 73.539062 149.507812 73.363281 149.507812 73.148438 C 149.507812 72.933594 149.574219 72.742188 149.703125 72.582031 C 149.835938 72.421875 150.046875 72.257812 150.339844 72.085938 C 150.875 71.777344 151.488281 71.535156 152.171875 71.359375 C 152.855469 71.183594 153.535156 71.09375 154.210938 71.09375 Z M 153.449219 81.296875 C 154.371094 81.296875 155.128906 80.984375 155.722656 80.359375 C 156.308594 79.738281 156.605469 78.933594 156.605469 77.949219 L 156.605469 77.28125 L 156.191406 77.28125 C 154.839844 77.28125 153.808594 77.335938 153.101562 77.453125 C 152.394531 77.566406 151.890625 77.761719 151.59375 78.027344 C 151.292969 78.300781 151.144531 78.695312 151.144531 79.21875 C 151.144531 79.820312 151.363281 80.316406 151.800781 80.707031 C 152.238281 81.101562 152.789062 81.296875 153.449219 81.296875 Z M 153.449219 81.296875 "/>
<path style=" stroke:none;fill-rule:evenodd;fill:rgb(99.607843%,99.607843%,99.607843%);fill-opacity:1;" d="M 28.003906 18.96875 C 34.289062 18.96875 40.058594 21.167969 44.589844 24.839844 C 43.09375 24.363281 41.476562 24.125 39.753906 24.125 C 36.964844 24.125 34.527344 24.742188 32.445312 25.964844 C 30.363281 27.195312 28.785156 28.933594 27.707031 31.195312 L 27.707031 27.21875 C 27.707031 26.335938 27.453125 25.621094 26.9375 25.082031 C 26.421875 24.542969 25.699219 24.273438 24.765625 24.273438 C 23.835938 24.273438 23.101562 24.542969 22.566406 25.082031 C 22.023438 25.621094 21.757812 26.335938 21.757812 27.21875 L 21.757812 71.121094 C 10.1875 68.308594 1.597656 57.867188 1.597656 45.417969 C 1.597656 30.808594 13.421875 18.964844 28.003906 18.964844 Z M 53.082031 53.722656 C 49.601562 64.261719 39.695312 71.867188 28.007812 71.867188 L 27.699219 71.863281 L 27.707031 71.585938 L 27.707031 54.292969 C 28.785156 56.554688 30.363281 58.292969 32.445312 59.523438 C 34.527344 60.746094 36.964844 61.359375 39.753906 61.359375 C 42.9375 61.359375 45.71875 60.601562 48.09375 59.078125 C 50.152344 57.765625 51.8125 55.976562 53.082031 53.722656 Z M 38.582031 56.429688 C 42.058594 56.429688 44.75 55.25 46.660156 52.898438 C 48.570312 50.542969 49.523438 47.207031 49.523438 42.890625 C 49.523438 38.574219 48.570312 35.203125 46.660156 32.773438 C 44.75 30.34375 42.058594 29.128906 38.582031 29.128906 C 35.101562 29.128906 32.421875 30.308594 30.535156 32.664062 C 28.648438 35.015625 27.707031 38.375 27.707031 42.742188 C 27.707031 47.109375 28.648438 50.480469 30.535156 52.859375 C 32.421875 55.242188 35.101562 56.429688 38.582031 56.429688 Z M 38.582031 56.429688 "/>
<path style=" stroke:none;fill-rule:nonzero;fill:rgb(99.607843%,99.607843%,99.607843%);fill-opacity:1;" d="M 71.082031 61.359375 C 68.828125 61.359375 66.6875 61.089844 64.65625 60.550781 C 62.621094 60.011719 60.820312 59.25 59.253906 58.269531 C 58.371094 57.679688 57.75 57.128906 57.378906 56.613281 C 57.015625 56.101562 56.828125 55.476562 56.828125 54.738281 C 56.828125 54.101562 57.015625 53.574219 57.378906 53.15625 C 57.75 52.738281 58.222656 52.53125 58.8125 52.53125 C 59.402344 52.53125 60.253906 52.898438 61.382812 53.636719 C 62.855469 54.515625 64.3125 55.214844 65.753906 55.734375 C 67.199219 56.25 69 56.503906 71.152344 56.503906 C 73.800781 56.503906 75.859375 56.039062 77.328125 55.109375 C 78.796875 54.175781 79.53125 52.828125 79.53125 51.058594 C 79.53125 49.980469 79.261719 49.109375 78.722656 48.449219 C 78.179688 47.785156 77.253906 47.199219 75.929688 46.683594 C 74.609375 46.167969 72.671875 45.640625 70.125 45.097656 C 65.816406 44.167969 62.730469 42.917969 60.871094 41.347656 C 59.007812 39.777344 58.078125 37.644531 58.078125 34.945312 C 58.078125 32.835938 58.664062 30.972656 59.84375 29.355469 C 61.015625 27.734375 62.644531 26.460938 64.726562 25.527344 C 66.808594 24.59375 69.171875 24.128906 71.816406 24.128906 C 73.726562 24.128906 75.574219 24.386719 77.363281 24.902344 C 79.148438 25.414062 80.730469 26.140625 82.101562 27.074219 C 83.765625 28.25 84.597656 29.476562 84.597656 30.753906 C 84.597656 31.390625 84.402344 31.929688 84.011719 32.371094 C 83.617188 32.8125 83.152344 33.03125 82.613281 33.03125 C 82.027344 33.03125 81.144531 32.617188 79.972656 31.78125 C 78.597656 30.898438 77.300781 30.214844 76.074219 29.722656 C 74.851562 29.230469 73.332031 28.984375 71.523438 28.984375 C 69.21875 28.984375 67.371094 29.5 65.972656 30.53125 C 64.578125 31.558594 63.882812 32.933594 63.882812 34.648438 C 63.882812 35.730469 64.140625 36.601562 64.652344 37.261719 C 65.167969 37.925781 66.023438 38.515625 67.222656 39.027344 C 68.425781 39.542969 70.152344 40.046875 72.402344 40.539062 C 75.730469 41.273438 78.316406 42.082031 80.152344 42.964844 C 81.988281 43.847656 83.300781 44.925781 84.082031 46.203125 C 84.867188 47.480469 85.257812 49.097656 85.257812 51.058594 C 85.257812 54.152344 83.960938 56.640625 81.363281 58.53125 C 78.769531 60.417969 75.34375 61.359375 71.082031 61.359375 Z M 91.828125 61.214844 C 90.949219 61.214844 90.226562 60.953125 89.664062 60.441406 C 89.097656 59.925781 88.816406 59.203125 88.816406 58.269531 L 88.816406 27.21875 C 88.816406 26.285156 89.097656 25.5625 89.664062 25.046875 C 90.226562 24.535156 90.945312 24.273438 91.828125 24.273438 C 92.710938 24.273438 93.417969 24.535156 93.960938 25.046875 C 94.496094 25.5625 94.769531 26.285156 94.769531 27.21875 L 94.769531 58.269531 C 94.769531 59.25 94.496094 59.988281 93.960938 60.480469 C 93.417969 60.96875 92.710938 61.214844 91.828125 61.214844 Z M 91.828125 16.550781 C 90.652344 16.550781 89.699219 16.207031 88.960938 15.519531 C 88.230469 14.832031 87.859375 13.925781 87.859375 12.792969 C 87.859375 11.714844 88.230469 10.832031 88.960938 10.148438 C 89.699219 9.460938 90.652344 9.117188 91.828125 9.117188 C 93.003906 9.117188 93.960938 9.460938 94.695312 10.148438 C 95.429688 10.832031 95.792969 11.714844 95.792969 12.792969 C 95.792969 13.925781 95.429688 14.832031 94.695312 15.519531 C 93.960938 16.207031 93.003906 16.550781 91.828125 16.550781 Z M 115.148438 61.359375 C 111.816406 61.359375 108.867188 60.601562 106.296875 59.078125 C 103.726562 57.558594 101.742188 55.402344 100.34375 52.605469 C 98.949219 49.808594 98.25 46.570312 98.25 42.894531 C 98.25 39.210938 98.972656 35.949219 100.417969 33.105469 C 101.863281 30.261719 103.882812 28.054688 106.480469 26.484375 C 109.074219 24.914062 112.0625 24.125 115.441406 24.125 C 117.300781 24.125 119.152344 24.386719 120.984375 24.898438 C 122.824219 25.414062 124.425781 26.164062 125.800781 27.140625 C 126.679688 27.734375 127.304688 28.308594 127.671875 28.875 C 128.039062 29.4375 128.222656 30.0625 128.222656 30.75 C 128.222656 31.433594 128.039062 32 127.671875 32.441406 C 127.308594 32.886719 126.828125 33.105469 126.238281 33.105469 C 125.898438 33.105469 125.53125 33.007812 125.136719 32.808594 C 124.746094 32.613281 124.414062 32.417969 124.144531 32.222656 C 123.878906 32.027344 123.691406 31.902344 123.597656 31.855469 C 122.320312 31.019531 121.109375 30.359375 119.960938 29.867188 C 118.808594 29.375 117.398438 29.132812 115.734375 29.132812 C 112.15625 29.132812 109.382812 30.347656 107.394531 32.773438 C 105.414062 35.203125 104.421875 38.574219 104.421875 42.890625 C 104.421875 47.207031 105.414062 50.542969 107.394531 52.898438 C 109.382812 55.253906 112.15625 56.433594 115.734375 56.433594 C 117.398438 56.433594 118.832031 56.183594 120.035156 55.695312 C 121.234375 55.203125 122.441406 54.542969 123.667969 53.707031 C 124.207031 53.363281 124.722656 53.070312 125.214844 52.824219 C 125.703125 52.578125 126.117188 52.457031 126.460938 52.457031 C 127 52.457031 127.453125 52.675781 127.820312 53.121094 C 128.1875 53.558594 128.371094 54.125 128.371094 54.808594 C 128.371094 55.449219 128.199219 56.027344 127.855469 56.539062 C 127.511719 57.054688 126.875 57.632812 125.949219 58.269531 C 124.578125 59.203125 122.921875 59.949219 120.988281 60.515625 C 119.054688 61.078125 117.109375 61.359375 115.148438 61.359375 Z M 144.929688 61.359375 C 141.554688 61.359375 138.574219 60.601562 136.003906 59.078125 C 133.433594 57.558594 131.453125 55.390625 130.054688 52.566406 C 128.65625 49.746094 127.960938 46.472656 127.960938 42.746094 C 127.960938 39.015625 128.65625 35.742188 130.054688 32.921875 C 131.453125 30.101562 133.433594 27.929688 136.003906 26.410156 C 138.578125 24.890625 141.554688 24.128906 144.929688 24.128906 C 148.308594 24.128906 151.296875 24.890625 153.894531 26.410156 C 156.488281 27.929688 158.484375 30.101562 159.878906 32.921875 C 161.277344 35.742188 161.976562 39.015625 161.976562 42.746094 C 161.976562 46.472656 161.277344 49.746094 159.878906 52.566406 C 158.484375 55.390625 156.488281 57.558594 153.894531 59.078125 C 151.296875 60.601562 148.308594 61.359375 144.929688 61.359375 Z M 144.929688 56.429688 C 148.457031 56.429688 151.164062 55.265625 153.050781 52.933594 C 154.933594 50.605469 155.878906 47.207031 155.878906 42.742188 C 155.878906 38.375 154.921875 35.003906 153.011719 32.625 C 151.101562 30.246094 148.410156 29.058594 144.933594 29.058594 C 141.453125 29.058594 138.761719 30.246094 136.851562 32.625 C 134.941406 35.003906 133.984375 38.375 133.984375 42.742188 C 133.984375 47.15625 134.925781 50.542969 136.816406 52.898438 C 138.699219 55.25 141.40625 56.429688 144.933594 56.429688 Z M 144.929688 56.429688 "/>
</g>
</svg>
